<?xml version="1.0" encoding="UTF-8" standalone="no" ?>
<!DOCTYPE svg PUBLIC "-//W3C//DTD SVG 1.1//EN" "http://www.w3.org/Graphics/SVG/1.1/DTD/svg11.dtd">
<svg xmlns="http://www.w3.org/2000/svg" xmlns:xlink="http://www.w3.org/1999/xlink" version="1.1" width="500" height="500" viewBox="0 0 500 500" xml:space="preserve">
<desc>Created with Fabric.js 5.3.0</desc>
<defs>
</defs>
<g transform="matrix(1 0 0 1 258.0325802147 236.6383616203)" id="NvmozAs0t0D76S6xAGo6h"  >
<path style="stroke:#227d33; stroke-width: 2; stroke-dasharray: none; stroke-linecap: butt; stroke-dashoffset: 0; stroke-linejoin: miter; stroke-miterlimit: 4; fill: rgb(255,255,255); fill-opacity: 0; fill-rule: nonzero; opacity: 1;"  transform=" translate(0, 0)" d="M -36.06927 3.23588 L -36.06927 -0.07221000000000011 L -35.420230000000004 -2.83727 L -34.13841 -6.13337 L -32.728410000000004 -8.91674 L -30.988800000000005 -11.718420000000002 L -29.487240000000003 -14.263740000000002 L -28.454710000000002 -15.637000000000002 L -27.264450000000004 -17.047 L -25.927700000000005 -18.38375 L -23.968350000000004 -20.17829 L -21.972380000000005 -21.88127 L -20.031340000000004 -23.382830000000002 L -18.255110000000002 -24.609710000000003 L -16.076020000000003 -25.946460000000002 L -12.981350000000003 -27.484640000000002 L -9.648630000000002 -28.93126 L -6.260970000000002 -30.487750000000002 L -4.0380600000000015 -31.271030000000003 L -0.7785800000000016 -32.369730000000004 L 2.7555699999999983 -33.12051 L 6.362969999999999 -34.0544 L 9.878809999999998 -34.56713 L 13.504519999999998 -35.17141 L 17.771139999999995 -35.81232 L 21.286979999999996 -36.27011 L 24.747879999999995 -36.54478 L 27.297999999999995 -36.764520000000005 L 31.125139999999995 -36.837770000000006 L 33.249289999999995 -36.837770000000006 L 36.069289999999995 -33.669850000000004 L 35.172019999999996 -10.613550000000004 L 34.65929 -6.4591800000000035 L 33.83527 -2.3756800000000036 L 32.59008 1.9458699999999967 L 31.61956 5.374479999999997 L 30.264499999999998 9.366419999999996 L 27.93892 14.292259999999995 L 26.89516 16.654349999999994 L 25.283730000000002 19.620839999999994 L 22.884900000000002 22.642259999999993 L 19.863480000000003 26.029919999999994 L 17.006860000000003 28.959789999999995 L 15.404270000000004 30.406409999999994 L 12.987130000000004 32.07276999999999 L 9.672720000000004 33.86730999999999 L 6.559740000000003 35.13080999999999 L 2.677670000000003 36.48586999999999 L -0.2064799999999969 36.65467999999999 L -5.626729999999997 36.837799999999994 L -8.867889999999996 36.58143999999999 L -12.511909999999995 35.574299999999994 L -16.961639999999996 33.743129999999994 L -20.031309999999994 32.072759999999995 L -24.432929999999995 28.882409999999997 L -27.033189999999994 26.446959999999997 L -29.306359999999994 24.249679999999998 L -31.357269999999993 21.39306 L -33.33492999999999 17.749039999999997 L -34.85479999999999 13.903589999999998 L -35.66050999999999 10.753979999999999 L -35.89855999999999 6.285929999999999 z" stroke-linecap="round" />
</g>
<g transform="matrix(1 0 0 1 227.5825494603 256.7844304061)" id="t5DR2XLHV1QKBqmh-9e7y"  >
<path style="stroke: #227d33; stroke-width: 2; stroke-dasharray: none; stroke-linecap: butt; stroke-dashoffset: 0; stroke-linejoin: miter; stroke-miterlimit: 4; fill: rgb(255,255,255); fill-opacity: 0; fill-rule: nonzero; opacity: 1;"  transform=" translate(0, 0)" d="M -16.00946 19.46646 L -7.902200000000001 14.482230000000001 L 0.6151499999999999 8.362360000000002 L 9.25868 1.8323900000000028 L 16.00947 -4.066659999999997 L 15.53628 -19.466459999999998" stroke-linecap="round" />
</g>
<g transform="matrix(1 0 0 1 252.7875967789 248.9898956809)" id="pZUZzT01lkyqe2z-qk9s2"  >
<path style="stroke: #227d33; stroke-width: 2; stroke-dasharray: none; stroke-linecap: butt; stroke-dashoffset: 0; stroke-linejoin: miter; stroke-miterlimit: 4; fill: rgb(255,255,255); fill-opacity: 0; fill-rule: nonzero; opacity: 1;"  transform=" translate(0, 0)" d="M -8.53312 3.21767 L -1.4353300000000004 -3.2176600000000004 L 8.53312 -2.9337500000000003" stroke-linecap="round" />
</g>
<g transform="matrix(1 0 0 1 259.0178806906 237.32486518)" id="2Ki4gQd-OzhwIjOihv1ka"  >
<path style="stroke: #227d33; stroke-width: 2; stroke-dasharray: none; stroke-linecap: butt; stroke-dashoffset: 0; stroke-linejoin: miter; stroke-miterlimit: 4; fill: rgb(255,255,255); fill-opacity: 0; fill-rule: nonzero; opacity: 1;"  transform=" translate(0, 0)" d="M -7.22397 7.94736 L 7.223980000000001 -7.947369999999999" stroke-linecap="round" />
</g>
<g transform="matrix(1 0 0 1 245.4220987511 262.5417738339)" id="FvPXX58M7zoyXKEsNnqK9"  >
<path style="stroke: #227d33; stroke-width: 2; stroke-dasharray: none; stroke-linecap: butt; stroke-dashoffset: 0; stroke-linejoin: miter; stroke-miterlimit: 4; fill: rgb(255,255,255); fill-opacity: 0; fill-rule: nonzero; opacity: 1;"  transform=" translate(0, 0)" d="M -0.93446 1.71098 L 0.9344500000000001 -1.7109699999999999 z" stroke-linecap="round" />
</g>
<g transform="matrix(1 0 0 1 254.3586610043 264.4370094222)" id="HrnKHRGtSZ9l3cFvhmgGK"  >
<path style="stroke: #227d33; stroke-width: 2; stroke-dasharray: none; stroke-linecap: butt; stroke-dashoffset: 0; stroke-linejoin: miter; stroke-miterlimit: 4; fill: rgb(255,255,255); fill-opacity: 0; fill-rule: nonzero; opacity: 1;"  transform=" translate(0, 0)" d="M 0 1.89524 L 0 -1.89523 z" stroke-linecap="round" />
</g>
<g transform="matrix(1 0 0 1 262.5713485537 263.0813895223)" id="eCAlOnGuivWAZr5JNK-UR"  >
<path style="stroke: #227d33; stroke-width: 2; stroke-dasharray: none; stroke-linecap: butt; stroke-dashoffset: 0; stroke-linejoin: miter; stroke-miterlimit: 4; fill: rgb(255,255,255); fill-opacity: 0; fill-rule: nonzero; opacity: 1;"  transform=" translate(0, 0)" d="M 0.94762 1.80311 L -0.94762 -1.8031 z" stroke-linecap="round" />
</g>
<g transform="matrix(1 0 0 1 270.1522909069 258.2511710437)" id="URxIqfbIPEPh_qUgB6pW1"  >
<path style="stroke: #227d33; stroke-width: 2; stroke-dasharray: none; stroke-linecap: butt; stroke-dashoffset: 0; stroke-linejoin: miter; stroke-miterlimit: 4; fill: rgb(255,255,255); fill-opacity: 0; fill-rule: nonzero; opacity: 1;"  transform=" translate(0, 0)" d="M 1.21084 1.18452 L -1.21085 -1.18452 z" stroke-linecap="round" />
</g>
<g transform="matrix(1 0 0 1 274.8772185194 251.0782307963)" id="El6hWN9BkHLaYQkNuyoXQ"  >
<path style="stroke: #227d33; stroke-width: 2; stroke-dasharray: none; stroke-linecap: butt; stroke-dashoffset: 0; stroke-linejoin: miter; stroke-miterlimit: 4; fill: rgb(255,255,255); fill-opacity: 0; fill-rule: nonzero; opacity: 1;"  transform=" translate(0, 0)" d="M 1.80311 0.93446 L -1.8031 -0.9344500000000001 z" stroke-linecap="round" />
</g>
<g transform="matrix(1 0 0 1 265.3883848717 210.2983607617)" id="0kWJIrwg5yLW9Qltig_7L"  >
<path style="stroke: #227d33; stroke-width: 2; stroke-dasharray: none; stroke-linecap: butt; stroke-dashoffset: 0; stroke-linejoin: miter; stroke-miterlimit: 4; fill: rgb(255,255,255); fill-opacity: 0; fill-rule: nonzero; opacity: 1;"  transform=" translate(0, 0)" d="M -7.68672 1.72915 L -3.0950300000000004 0.3342099999999999 L 1.9906999999999995 -0.8863700000000001 L 7.686719999999999 -1.7291500000000002" stroke-linecap="round" />
</g>
<g transform="matrix(1 0 0 1 282.3892567113 207.3341061845)" id="k9XgcMW1hebWJWV-B5wmk"  >
<path style="stroke: #227d33; stroke-width: 2; stroke-dasharray: none; stroke-linecap: butt; stroke-dashoffset: 0; stroke-linejoin: miter; stroke-miterlimit: 4; fill: rgb(255,255,255); fill-opacity: 0; fill-rule: nonzero; opacity: 1;"  transform=" translate(0, 0)" d="M -2.04882 0.07265 L 2.0488299999999997 -0.07265999999999999 z" stroke-linecap="round" />
</g>
</svg>